# Alias OBJ Model File
# Exported from SketchUp, (c) 2000-2012 Trimble Navigation Limited
# File units = meters

mtllib stairs.mtl

g Mesh1 Model

usemtl _auto_38
v 3.97303 0.777476 0.599186
vt 2.45833 2
vn -1 7.82076e-14 -2.07782e-15
v 3.97303 0.510776 0.564515
vt 3.33333 1.875
v 3.97303 0.510776 0.599186
vt 3.33333 2
f 1/1/1 2/2/1 3/3/1

v 3.97303 0.523476 0.564515
vt 3.29167 1.875
f 2/2/1 1/1/1 4/4/1

v 3.97303 0.523476 0.414274
vt 3.29167 1.33333
f 4/4/1 1/1/1 5/5/1

v 3.97303 1.52678 -1.778e-09
vt 1.06581e-14 -0.160256
vn -1 7.82094e-14 -1.28658e-16
f 6/6/2 5/5/2 1/1/2

v 3.97303 0.269476 0.229362
vt 4.125 0.666667
f 6/6/2 7/7/2 5/5/2

v 3.97303 0.0154759 -1.778e-09
vt 4.95833 -0.160257
f 8/8/2 7/7/2 6/6/2

v 3.97303 0.0154759 0.194691
vt 4.95833 0.541667
f 9/9/2 7/7/2 8/8/2

v 3.97303 0.00277587 0.194691
vt 5 0.541667
f 10/10/2 7/7/2 9/9/2

v 3.97303 0.00277587 0.229362
vt 5 0.666667
f 7/7/2 10/10/2 11/11/2

vt 0.5 0.541667
vn -7.81597e-14 -1 -1.05893e-42
v 5.19223 0.00277587 0.229362
vt 4.5 0.666667
vt 0.5 0.666667
f 10/12/3 12/13/3 11/14/3

v 5.19223 0.00277587 0.194691
vt 4.5 0.541667
f 12/13/3 10/12/3 13/15/3

vt -4.95833 0.5
vn 0 0 -1
vt -5 4.5
vt -5 0.5
f 9/16/4 13/17/4 10/18/4

v 5.19223 0.0154759 0.194691
vt -4.95833 4.5
f 13/17/4 9/16/4 14/19/4

vt 0.5 -0.160256
vn -7.81597e-14 -1 -1.67911e-44
f 8/20/5 14/15/5 9/12/5

v 5.19223 0.0154759 -1.778e-09
vt 4.5 -0.160256
f 14/15/5 8/20/5 15/21/5

vt -1.24345e-14 0.5
f 6/22/4 15/19/4 8/16/4

v 5.19223 1.52678 -1.778e-09
vt -8.88178e-16 4.5
f 15/19/4 6/22/4 16/23/4

v 3.97303 1.52678 1.15392
vt -0.5 4
vn 7.51991e-14 1 0
vt -4.5 -0.160256
vt -0.5 -0.160256
f 17/24/6 16/25/6 6/26/6

v 5.19223 1.52678 1.15392
vt -4.5 4
f 16/25/6 17/24/6 18/27/6

vt 1.06581e-14 0.5
vn 0 0 1
v 5.19223 1.27278 1.15392
vt 0.833333 4.5
vt -1.77636e-15 4.5
f 17/28/7 19/29/7 18/30/7

v 3.97303 1.27278 1.15392
vt 0.833333 0.5
f 19/29/7 17/28/7 20/31/7

vt 1.06581e-14 4
v 3.97303 1.27278 1.11925
vt 0.833333 3.875
vt 0.833333 4
f 17/32/2 21/33/2 20/34/2

v 3.97303 1.28548 1.11925
vt 0.791667 3.875
f 21/33/2 17/32/2 22/35/2

v 3.97303 1.28548 0.96901
vt 0.791667 3.33333
f 22/35/2 17/32/2 23/36/2

f 6/6/2 23/36/2 17/32/2

v 3.97303 1.03148 0.784098
vt 1.625 2.66667
f 6/6/2 24/37/2 23/36/2

f 6/6/2 1/1/2 24/37/2

v 3.97303 0.777476 0.749427
vt 2.45833 2.54167
vn -1 7.59476e-14 1.11882e-15
f 25/38/8 24/37/8 1/1/8

v 3.97303 0.764776 0.749427
vt 2.5 2.54167
f 26/39/8 24/37/8 25/38/8

v 3.97303 0.764776 0.784098
vt 2.5 2.66667
f 24/37/8 26/39/8 27/40/8

vt 0.5 2.54167
vn -7.81597e-14 -1 0
v 5.19223 0.764776 0.784098
vt 4.5 2.66667
vt 0.5 2.66667
f 26/41/9 28/42/9 27/43/9

v 5.19223 0.764776 0.749427
vt 4.5 2.54167
f 28/42/9 26/41/9 29/44/9

vt -2.45833 0.5
vt -2.5 4.5
vt -2.5 0.5
f 25/45/4 29/46/4 26/47/4

v 5.19223 0.777476 0.749427
vt -2.45833 4.5
f 29/46/4 25/45/4 30/48/4

vt 0.5 2
f 1/49/9 30/44/9 25/41/9

v 5.19223 0.777476 0.599186
vt 4.5 2
f 30/44/9 1/49/9 31/50/9

vt 2.45833 0.5
v 5.19223 0.510776 0.599186
vt 3.33333 4.5
vt 2.45833 4.5
f 1/51/7 32/52/7 31/53/7

vt 3.33333 0.5
f 32/52/7 1/51/7 3/54/7

vt 0.5 1.875
vn -7.81597e-14 -1 4.23573e-42
f 2/55/10 32/50/10 3/49/10

v 5.19223 0.510776 0.564515
vt 4.5 1.875
f 32/50/10 2/55/10 33/56/10

vt -3.29167 0.5
vt -3.33333 4.5
vt -3.33333 0.5
f 4/57/4 33/58/4 2/59/4

v 5.19223 0.523476 0.564515
vt -3.29167 4.5
f 33/58/4 4/57/4 34/60/4

vt 0.5 1.33333
f 5/61/9 34/56/9 4/55/9

v 5.19223 0.523476 0.414274
vt 4.5 1.33333
f 34/56/9 5/61/9 35/62/9

vt 3.29167 0.5
v 5.19223 0.256776 0.414274
vt 4.16667 4.5
vt 3.29167 4.5
f 5/63/7 36/64/7 35/65/7

v 3.97303 0.256776 0.414274
vt 4.16667 0.5
f 36/64/7 5/63/7 37/66/7

vn -1 8.09368e-14 -1.91798e-15
v 3.97303 0.256776 0.379603
vt 4.16667 1.20833
vt 4.16667 1.33333
f 5/5/11 38/67/11 37/68/11

v 3.97303 0.269476 0.379603
vt 4.125 1.20833
f 38/67/11 5/5/11 39/69/11

f 39/69/11 5/5/11 7/7/11

v 5.19223 0.269476 0.379603
vt 4.5 1.20833
vt 0.5 1.20833
f 7/14/9 40/70/9 39/71/9

v 5.19223 0.269476 0.229362
f 40/70/9 7/14/9 41/13/9

vt 4.125 0.5
vt 5 4.5
vt 4.125 4.5
f 7/72/7 12/73/7 41/74/7

vt 5 0.5
f 12/73/7 7/72/7 11/75/7

vt -5 0.666667
vn 1 -7.82301e-14 8.06225e-17
vt -4.95833 0.541667
vt -4.125 0.666667
f 12/76/12 14/77/12 41/78/12

vt -5 0.541667
f 14/77/12 12/76/12 13/79/12

vt 0 -0.160256
f 14/77/12 16/80/12 41/78/12

vt -4.95833 -0.160256
f 16/80/12 14/77/12 15/81/12

vt -3.29167 1.33333
f 41/78/12 16/80/12 35/82/12

vt -2.45833 2
f 35/82/12 16/80/12 31/83/12

v 5.19223 1.03148 0.784098
vt -1.625 2.66667
f 31/83/12 16/80/12 42/84/12

v 5.19223 1.03148 0.934339
vt -1.625 3.20833
f 42/84/12 16/80/12 43/85/12

v 5.19223 1.28548 0.96901
vt -0.791667 3.33333
f 43/85/12 16/80/12 44/86/12

v 5.19223 1.28548 1.11925
vt -0.791667 3.875
f 44/86/12 16/80/12 45/87/12

vt -1.03071e-07 4
f 18/88/12 45/87/12 16/80/12

vt -0.833333 4
f 19/89/12 45/87/12 18/88/12

v 5.19223 1.27278 1.11925
vt -0.833333 3.875
f 45/87/12 19/89/12 46/90/12

vt 4.5 4
vn -7.81597e-14 -1 -8.47145e-42
vt 0.5 3.875
vt 4.5 3.875
f 19/91/13 21/92/13 46/93/13

vt 0.5 4
f 21/92/13 19/91/13 20/94/13

vt -0.791667 0.5
vt -0.833333 4.5
vt -0.833333 0.5
f 22/95/4 46/96/4 21/97/4

vt -0.791667 4.5
f 46/96/4 22/95/4 45/98/4

vt 0.5 3.33333
f 23/99/9 45/93/9 22/92/9

vt 4.5 3.33333
f 45/93/9 23/99/9 44/100/9

vt 0.791667 0.5
v 5.19223 1.01878 0.96901
vt 1.66667 4.5
vt 0.791667 4.5
f 23/101/7 47/102/7 44/103/7

v 3.97303 1.01878 0.96901
vt 1.66667 0.5
f 47/102/7 23/101/7 48/104/7

v 3.97303 1.01878 0.934339
vt 1.66667 3.20833
vt 1.66667 3.33333
f 23/36/2 49/105/2 48/106/2

v 3.97303 1.03148 0.934339
vt 1.625 3.20833
f 49/105/2 23/36/2 50/107/2

f 50/107/2 23/36/2 24/37/2

vn -7.81597e-14 -1 2.25571e-43
vt 4.5 3.20833
vt 0.5 3.20833
f 24/43/14 43/108/14 50/109/14

f 43/108/14 24/43/14 42/42/14

vt 1.625 0.5
vt 2.5 4.5
vt 1.625 4.5
f 24/110/7 28/111/7 42/112/7

vt 2.5 0.5
f 28/111/7 24/110/7 27/113/7

vt -2.5 2.66667
vn 1 -7.86768e-14 -1.27866e-15
vt -2.45833 2.54167
f 28/114/15 30/115/15 42/84/15

vt -2.5 2.54167
f 30/115/15 28/114/15 29/116/15

f 42/84/15 30/115/15 31/83/15

v 5.19223 1.01878 0.934339
vt -1.66667 4.5
vt -1.625 0.5
vt -1.625 4.5
f 51/117/4 50/118/4 43/119/4

vt -1.66667 0.5
f 50/118/4 51/117/4 49/120/4

vn -7.81597e-14 -1 8.47145e-42
f 47/100/16 49/109/16 51/108/16

f 49/109/16 47/100/16 48/99/16

vt -1.66667 3.33333
vt -1.66667 3.20833
f 43/85/12 47/121/12 51/122/12

f 47/121/12 43/85/12 44/86/12

vn 1 -7.59476e-14 -1.11882e-15
vt -3.29167 1.875
f 31/83/17 34/123/17 35/82/17

vt -3.33333 2
f 32/124/17 34/123/17 31/83/17

vt -3.33333 1.875
f 34/123/17 32/124/17 33/125/17

vn 1 -7.82076e-14 2.07782e-15
vt -4.125 1.20833
f 35/82/18 40/126/18 41/78/18

vt -4.16667 1.33333
f 36/127/18 40/126/18 35/82/18

v 5.19223 0.256776 0.379603
vt -4.16667 1.20833
f 40/126/18 36/127/18 52/128/18

f 36/62/9 38/71/9 52/70/9

f 38/71/9 36/62/9 37/61/9

vt -4.125 0.5
vt -4.16667 4.5
vt -4.16667 0.5
f 39/129/4 52/130/4 38/131/4

vt -4.125 4.5
f 52/130/4 39/129/4 40/132/4

